<mxfile host="app.diagrams.net" modified="2023-03-27T22:24:43.149Z" agent="Mozilla/5.0 (Windows NT 10.0; Win64; x64) AppleWebKit/537.36 (KHTML, like Gecko) Chrome/111.0.0.0 Safari/537.36" etag="ccdpxcohbB1sOyUBLzen" version="21.1.1" type="device">
  <diagram id="R2lEEEUBdFMjLlhIrx00" name="Page-1">
    <mxGraphModel dx="880" dy="444" grid="1" gridSize="10" guides="1" tooltips="1" connect="1" arrows="1" fold="1" page="1" pageScale="1" pageWidth="850" pageHeight="1100" background="none" math="0" shadow="0" extFonts="Permanent Marker^https://fonts.googleapis.com/css?family=Permanent+Marker">
      <root>
        <mxCell id="0" />
        <mxCell id="1" parent="0" />
        <mxCell id="Y1GzPFf3PExJGq9-H8yT-31" style="edgeStyle=none;rounded=0;orthogonalLoop=1;jettySize=auto;html=1;strokeColor=#006658;fontColor=#5C5C5C;fillColor=#21C0A5;endArrow=none;endFill=0;" parent="1" source="Y1GzPFf3PExJGq9-H8yT-17" target="Y1GzPFf3PExJGq9-H8yT-22" edge="1">
          <mxGeometry relative="1" as="geometry" />
        </mxCell>
        <mxCell id="Y1GzPFf3PExJGq9-H8yT-32" style="edgeStyle=none;rounded=0;orthogonalLoop=1;jettySize=auto;html=1;entryX=0.5;entryY=0;entryDx=0;entryDy=0;strokeColor=#006658;fontColor=#5C5C5C;fillColor=#21C0A5;endArrow=none;endFill=0;" parent="1" source="Y1GzPFf3PExJGq9-H8yT-17" target="Y1GzPFf3PExJGq9-H8yT-27" edge="1">
          <mxGeometry relative="1" as="geometry" />
        </mxCell>
        <mxCell id="Y1GzPFf3PExJGq9-H8yT-17" value="Books" style="swimlane;fontStyle=0;childLayout=stackLayout;horizontal=1;startSize=26;horizontalStack=0;resizeParent=1;resizeParentMax=0;resizeLast=0;collapsible=1;marginBottom=0;align=center;fontSize=14;strokeColor=#006658;fontColor=#5C5C5C;fillColor=#21C0A5;" parent="1" vertex="1">
          <mxGeometry x="120" y="120" width="160" height="206" as="geometry">
            <mxRectangle x="610" y="140" width="60" height="30" as="alternateBounds" />
          </mxGeometry>
        </mxCell>
        <mxCell id="Y1GzPFf3PExJGq9-H8yT-18" value="id" style="text;strokeColor=none;fillColor=none;spacingLeft=4;spacingRight=4;overflow=hidden;rotatable=0;points=[[0,0.5],[1,0.5]];portConstraint=eastwest;fontSize=12;whiteSpace=wrap;html=1;fontColor=#5C5C5C;" parent="Y1GzPFf3PExJGq9-H8yT-17" vertex="1">
          <mxGeometry y="26" width="160" height="30" as="geometry" />
        </mxCell>
        <mxCell id="FrM4RC6pAdAoTo_RxdQY-7" value="client_id" style="text;strokeColor=none;fillColor=none;spacingLeft=4;spacingRight=4;overflow=hidden;rotatable=0;points=[[0,0.5],[1,0.5]];portConstraint=eastwest;fontSize=12;whiteSpace=wrap;html=1;fontColor=#5C5C5C;" parent="Y1GzPFf3PExJGq9-H8yT-17" vertex="1">
          <mxGeometry y="56" width="160" height="30" as="geometry" />
        </mxCell>
        <mxCell id="FrM4RC6pAdAoTo_RxdQY-1" value="category_id" style="text;strokeColor=none;fillColor=none;spacingLeft=4;spacingRight=4;overflow=hidden;rotatable=0;points=[[0,0.5],[1,0.5]];portConstraint=eastwest;fontSize=12;whiteSpace=wrap;html=1;fontColor=#5C5C5C;" parent="Y1GzPFf3PExJGq9-H8yT-17" vertex="1">
          <mxGeometry y="86" width="160" height="30" as="geometry" />
        </mxCell>
        <mxCell id="Y1GzPFf3PExJGq9-H8yT-19" value="name" style="text;strokeColor=none;fillColor=none;spacingLeft=4;spacingRight=4;overflow=hidden;rotatable=0;points=[[0,0.5],[1,0.5]];portConstraint=eastwest;fontSize=12;whiteSpace=wrap;html=1;fontColor=#5C5C5C;" parent="Y1GzPFf3PExJGq9-H8yT-17" vertex="1">
          <mxGeometry y="116" width="160" height="30" as="geometry" />
        </mxCell>
        <mxCell id="Y1GzPFf3PExJGq9-H8yT-20" value="autor" style="text;strokeColor=none;fillColor=none;spacingLeft=4;spacingRight=4;overflow=hidden;rotatable=0;points=[[0,0.5],[1,0.5]];portConstraint=eastwest;fontSize=12;whiteSpace=wrap;html=1;fontColor=#5C5C5C;" parent="Y1GzPFf3PExJGq9-H8yT-17" vertex="1">
          <mxGeometry y="146" width="160" height="30" as="geometry" />
        </mxCell>
        <mxCell id="hVPI0s3MygGFwiq10c6g-2" value="created_at" style="text;strokeColor=none;fillColor=none;spacingLeft=4;spacingRight=4;overflow=hidden;rotatable=0;points=[[0,0.5],[1,0.5]];portConstraint=eastwest;fontSize=12;whiteSpace=wrap;html=1;fontColor=#5C5C5C;" parent="Y1GzPFf3PExJGq9-H8yT-17" vertex="1">
          <mxGeometry y="176" width="160" height="30" as="geometry" />
        </mxCell>
        <mxCell id="Y1GzPFf3PExJGq9-H8yT-22" value="Client" style="swimlane;fontStyle=0;childLayout=stackLayout;horizontal=1;startSize=26;horizontalStack=0;resizeParent=1;resizeParentMax=0;resizeLast=0;collapsible=1;marginBottom=0;align=center;fontSize=14;strokeColor=#006658;fontColor=#5C5C5C;fillColor=#21C0A5;" parent="1" vertex="1">
          <mxGeometry x="400" y="120" width="160" height="146" as="geometry">
            <mxRectangle x="610" y="140" width="60" height="30" as="alternateBounds" />
          </mxGeometry>
        </mxCell>
        <mxCell id="Y1GzPFf3PExJGq9-H8yT-23" value="id" style="text;strokeColor=none;fillColor=none;spacingLeft=4;spacingRight=4;overflow=hidden;rotatable=0;points=[[0,0.5],[1,0.5]];portConstraint=eastwest;fontSize=12;whiteSpace=wrap;html=1;fontColor=#5C5C5C;" parent="Y1GzPFf3PExJGq9-H8yT-22" vertex="1">
          <mxGeometry y="26" width="160" height="30" as="geometry" />
        </mxCell>
        <mxCell id="Y1GzPFf3PExJGq9-H8yT-24" value="name" style="text;strokeColor=none;fillColor=none;spacingLeft=4;spacingRight=4;overflow=hidden;rotatable=0;points=[[0,0.5],[1,0.5]];portConstraint=eastwest;fontSize=12;whiteSpace=wrap;html=1;fontColor=#5C5C5C;" parent="Y1GzPFf3PExJGq9-H8yT-22" vertex="1">
          <mxGeometry y="56" width="160" height="30" as="geometry" />
        </mxCell>
        <mxCell id="Y1GzPFf3PExJGq9-H8yT-25" value="livros" style="text;strokeColor=none;fillColor=none;spacingLeft=4;spacingRight=4;overflow=hidden;rotatable=0;points=[[0,0.5],[1,0.5]];portConstraint=eastwest;fontSize=12;whiteSpace=wrap;html=1;fontColor=#5C5C5C;" parent="Y1GzPFf3PExJGq9-H8yT-22" vertex="1">
          <mxGeometry y="86" width="160" height="30" as="geometry" />
        </mxCell>
        <mxCell id="hVPI0s3MygGFwiq10c6g-3" value="created_at" style="text;strokeColor=none;fillColor=none;spacingLeft=4;spacingRight=4;overflow=hidden;rotatable=0;points=[[0,0.5],[1,0.5]];portConstraint=eastwest;fontSize=12;whiteSpace=wrap;html=1;fontColor=#5C5C5C;" parent="Y1GzPFf3PExJGq9-H8yT-22" vertex="1">
          <mxGeometry y="116" width="160" height="30" as="geometry" />
        </mxCell>
        <mxCell id="Y1GzPFf3PExJGq9-H8yT-27" value="Category" style="swimlane;fontStyle=0;childLayout=stackLayout;horizontal=1;startSize=26;horizontalStack=0;resizeParent=1;resizeParentMax=0;resizeLast=0;collapsible=1;marginBottom=0;align=center;fontSize=14;strokeColor=#006658;fontColor=#5C5C5C;fillColor=#21C0A5;" parent="1" vertex="1">
          <mxGeometry x="120" y="360" width="160" height="146" as="geometry">
            <mxRectangle x="610" y="140" width="60" height="30" as="alternateBounds" />
          </mxGeometry>
        </mxCell>
        <mxCell id="Y1GzPFf3PExJGq9-H8yT-28" value="id" style="text;strokeColor=none;fillColor=none;spacingLeft=4;spacingRight=4;overflow=hidden;rotatable=0;points=[[0,0.5],[1,0.5]];portConstraint=eastwest;fontSize=12;whiteSpace=wrap;html=1;fontColor=#5C5C5C;" parent="Y1GzPFf3PExJGq9-H8yT-27" vertex="1">
          <mxGeometry y="26" width="160" height="30" as="geometry" />
        </mxCell>
        <mxCell id="Y1GzPFf3PExJGq9-H8yT-29" value="name" style="text;strokeColor=none;fillColor=none;spacingLeft=4;spacingRight=4;overflow=hidden;rotatable=0;points=[[0,0.5],[1,0.5]];portConstraint=eastwest;fontSize=12;whiteSpace=wrap;html=1;fontColor=#5C5C5C;" parent="Y1GzPFf3PExJGq9-H8yT-27" vertex="1">
          <mxGeometry y="56" width="160" height="30" as="geometry" />
        </mxCell>
        <mxCell id="Y1GzPFf3PExJGq9-H8yT-30" value="description" style="text;strokeColor=none;fillColor=none;spacingLeft=4;spacingRight=4;overflow=hidden;rotatable=0;points=[[0,0.5],[1,0.5]];portConstraint=eastwest;fontSize=12;whiteSpace=wrap;html=1;fontColor=#5C5C5C;" parent="Y1GzPFf3PExJGq9-H8yT-27" vertex="1">
          <mxGeometry y="86" width="160" height="30" as="geometry" />
        </mxCell>
        <mxCell id="hVPI0s3MygGFwiq10c6g-1" value="created_at" style="text;strokeColor=none;fillColor=none;spacingLeft=4;spacingRight=4;overflow=hidden;rotatable=0;points=[[0,0.5],[1,0.5]];portConstraint=eastwest;fontSize=12;whiteSpace=wrap;html=1;fontColor=#5C5C5C;" parent="Y1GzPFf3PExJGq9-H8yT-27" vertex="1">
          <mxGeometry y="116" width="160" height="30" as="geometry" />
        </mxCell>
      </root>
    </mxGraphModel>
  </diagram>
</mxfile>
